<svg fill="none" viewBox="40 40 120 120" xmlns="http://www.w3.org/2000/svg" xmlns:xlink="http://www.w3.org/1999/xlink">
<circle cx="100" cy="100" fill="#0b0" r="60"/>
<g clip-rule="evenodd" fill="#fff" fill-rule="evenodd">
<path d="m112.786 86.8957c-4.02-1.585-8.35-2.4129-12.723-2.4129-9.1912 0-17.8364 3.6084-24.3429 10.1602-6.4784 6.523-10.0776 15.188-10.1355 24.398l-.0077 1.237 1.0747.611c5.1797 2.947 11.0373 4.498 16.9729 4.498.1632 0 .3277-.001.4913-.004 5.1741-.074 10.293-1.318 14.9335-3.615-1.4632-.818-2.8655-1.74-4.1985-2.756-8.0887 3.186-17.2559 2.794-25.014-1.198.7547-16.162 14.0617-29.1091 30.2262-29.1091 4.496 0 8.936.9945 12.947 2.8843.052-1.5647-.023-3.133-.224-4.6935z"/>
<path d="m134.541 118.754c-.123-11.451-5.699-21.8983-14.994-28.2625.007 1.6757-.105 3.3503-.335 5.015 6.604 5.3925 10.631 13.3335 11.071 22.0335-14.247 7.342-32.0143 2.2-40.1078-11.828-2.186-3.789-3.5263-8.0261-3.9202-12.3552-1.3751.7499-2.6883 1.6125-3.9282 2.5798.6538 4.1664 2.0745 8.2114 4.1945 11.8864 4.604 7.98 12.0057 13.701 20.8407 16.109 2.998.817 6.046 1.222 9.077 1.222 5.906 0 11.748-1.535 17.035-4.542l1.08-.614z"/>
<path d="m101.282 60.6251-1.066-.6251-1.066.6241c-5.2659 3.0818-9.6409 7.5003-12.6522 12.7774-2.6002 4.5574-4.1383 9.6625-4.499 14.8736 1.4416-.8569 2.9434-1.6104 4.4962-2.2542 1.3376-8.5904 6.3331-16.3541 13.719-21.0985 13.565 8.7222 18.026 26.8066 9.878 40.9296-2.206 3.825-5.224 7.132-8.798 9.671 1.335.814 2.737 1.521 4.194 2.112 3.304-2.679 6.117-5.961 8.258-9.672 9.513-16.4892 3.922-37.7249-12.464-47.3379z"/>
<path d="m100.195 96.6558c-1.9437 0-3.5245 1.5821-3.5245 3.5272 0 1.944 1.5808 3.526 3.5245 3.526 1.943 0 3.524-1.582 3.524-3.526 0-1.9451-1.581-3.5272-3.524-3.5272zm0 11.2762c-4.2701 0-7.7435-3.476-7.7435-7.749 0-4.2732 3.4734-7.7494 7.7435-7.7494 4.27 0 7.743 3.4762 7.743 7.7494 0 4.273-3.473 7.749-7.743 7.749z"/>
</g>
</svg>