<?xml version="1.0" standalone="no"?>
<!DOCTYPE svg PUBLIC "-//W3C//DTD SVG 20010904//EN"
 "http://www.w3.org/TR/2001/REC-SVG-20010904/DTD/svg10.dtd">
<svg version="1.0" xmlns="http://www.w3.org/2000/svg"
 width="1409.000000pt" height="1409.000000pt" viewBox="0 0 1409.000000 1409.000000"
 preserveAspectRatio="xMidYMid meet">
<metadata>
Created by potrace 1.14, written by Peter Selinger 2001-2017
</metadata>
<g transform="translate(0.000000,1409.000000) scale(0.100000,-0.100000)"
fill="#000000" stroke="none">
<path d="M6518 13855 c-3 -3 -168 -16 -235 -19 -13 -1 -23 -3 -23 -6 0 -3 44
-33 98 -67 254 -163 549 -433 722 -664 52 -70 105 -144 117 -165 l21 -39 -216
0 c-188 0 -282 -5 -417 -20 -16 -2 -55 -6 -85 -9 -46 -5 -131 -19 -324 -51
-17 -3 -39 -8 -48 -11 -17 -5 -47 -12 -88 -20 -14 -3 -83 -20 -155 -39 -613
-160 -1219 -458 -1745 -859 -58 -43 -107 -82 -110 -86 -3 -3 -17 -15 -32 -26
-125 -96 -405 -361 -538 -510 -105 -116 -138 -154 -170 -194 -19 -24 -40 -48
-45 -54 -77 -79 -389 -536 -459 -671 -8 -15 -45 -59 -83 -99 -350 -364 -577
-828 -639 -1306 -3 -25 -8 -56 -11 -70 -11 -57 -10 -430 3 -530 19 -153 21
-160 50 -278 14 -59 28 -136 30 -172 1 -36 5 -123 9 -195 6 -139 9 -167 19
-260 4 -33 9 -78 11 -100 3 -22 7 -53 9 -70 3 -16 8 -52 12 -80 4 -27 8 -54
10 -60 1 -5 4 -26 8 -45 12 -69 17 -96 36 -185 11 -49 29 -126 40 -170 11 -44
23 -88 25 -98 2 -9 6 -21 9 -25 3 -5 7 -19 9 -33 7 -37 85 -274 124 -374 133
-346 299 -669 501 -975 53 -80 99 -147 102 -150 3 -3 17 -21 30 -40 14 -19 28
-39 32 -45 5 -5 22 -28 39 -50 65 -85 158 -197 249 -300 78 -88 332 -336 445
-433 139 -120 300 -244 470 -361 66 -46 147 -111 179 -144 97 -101 174 -232
209 -358 26 -93 29 -120 33 -284 2 -88 6 -185 10 -215 3 -30 6 -56 5 -57 0 -2
11 -36 25 -75 72 -203 206 -353 389 -439 44 -20 107 -43 140 -50 84 -17 87
-26 8 -24 -83 2 -179 -17 -241 -47 -63 -31 -163 -131 -192 -193 -80 -170 -53
-366 69 -499 40 -44 139 -105 201 -123 46 -14 112 -17 405 -17 l350 -1 23 -65
c46 -126 187 -529 242 -690 92 -269 276 -453 530 -530 69 -21 98 -23 350 -26
299 -4 352 2 478 52 83 33 183 97 243 155 51 49 126 143 140 174 5 11 13 27
19 35 14 23 37 78 59 145 11 33 45 132 76 220 72 205 131 374 157 450 11 33
25 64 30 70 5 6 134 10 326 11 368 2 403 8 508 89 261 203 223 606 -71 745
-71 33 -132 47 -199 44 -54 -2 -44 10 16 20 189 30 395 185 496 374 68 128 90
233 91 435 1 92 4 173 6 180 2 6 7 30 10 52 15 101 77 252 141 342 55 78 141
159 237 224 567 385 1025 842 1377 1374 55 83 104 155 110 162 5 7 10 15 10
17 0 3 13 27 29 53 149 243 308 587 419 903 42 119 48 139 91 293 51 178 107
442 127 597 3 19 7 46 9 59 2 14 7 52 11 85 3 34 8 75 10 91 17 163 24 512 16
815 -1 47 0 177 2 290 2 113 0 237 -5 275 -10 93 -19 157 -23 175 -1 8 -6 33
-10 55 -21 106 -86 335 -116 403 -6 12 -14 32 -19 45 -30 75 -109 227 -167
322 -37 61 -111 198 -165 305 -54 107 -133 254 -176 325 -43 72 -85 141 -93
155 -8 14 -17 27 -20 30 -3 3 -27 39 -55 80 -243 366 -586 741 -953 1043 -76
62 -148 120 -161 129 -30 21 -25 36 51 149 70 106 222 262 337 347 50 37 78
64 70 67 -20 7 -109 26 -144 31 -16 3 -39 7 -50 9 -34 7 -205 18 -285 18 -179
0 -412 -30 -567 -73 -40 -11 -77 -20 -83 -20 -6 0 -49 60 -97 133 -79 122
-181 263 -249 347 -62 76 -293 300 -374 362 -289 223 -614 382 -971 474 -53
13 -105 26 -115 29 -11 2 -53 10 -94 19 -79 16 -201 34 -285 42 -27 2 -68 7
-90 10 -44 6 -601 14 -607 9z"/>
</g>
</svg>
